<?xml version="1.0" standalone="no"?>
<!DOCTYPE svg PUBLIC "-//W3C//DTD SVG 20010904//EN"
 "http://www.w3.org/TR/2001/REC-SVG-20010904/DTD/svg10.dtd">
<svg version="1.0" xmlns="http://www.w3.org/2000/svg"
 width="500.000000pt" height="500.000000pt" viewBox="0 0 500.000000 500.000000"
 preserveAspectRatio="xMidYMid meet">
<metadata>
Created by potrace 1.14, written by Peter Selinger 2001-2017
</metadata>
<g transform="translate(0.000000,500.000000) scale(0.100000,-0.100000)"
fill="#000000" stroke="none">
<path d="M0 2500 l0 -2500 2500 0 2500 0 0 2500 0 2500 -2500 0 -2500 0 0
-2500z m3783 594 c230 -59 378 -234 437 -514 17 -78 24 -559 12 -710 -14 -154
-30 -221 -84 -330 -73 -151 -209 -263 -368 -305 -129 -35 -348 -10 -461 51
-89 49 -168 143 -198 237 -8 22 -19 37 -28 37 -13 0 -14 -9 -9 -47 3 -27 9
-220 13 -430 l6 -383 -156 0 -157 0 0 1190 0 1190 145 0 145 0 0 -155 c0 -127
3 -155 14 -155 8 0 20 17 27 38 29 91 93 173 175 225 40 25 140 63 184 70 68
11 246 6 303 -9z m-2558 -571 c215 -539 267 -689 281 -805 9 -81 28 -74 44 15
26 149 64 266 253 782 108 292 198 538 202 548 6 15 24 17 167 17 129 0 159
-3 156 -14 -2 -7 -201 -543 -443 -1190 l-440 -1176 -157 0 c-87 0 -158 3 -158
8 0 4 56 157 124 341 l124 333 -345 827 c-190 454 -349 836 -354 849 l-9 22
167 -2 167 -3 221 -552z"/>
<path d="M3363 2831 c-133 -46 -219 -149 -253 -302 -8 -38 -11 -157 -8 -394 3
-321 4 -343 25 -398 63 -166 198 -257 381 -257 216 0 366 117 414 322 19 78
18 664 -1 738 -39 154 -136 259 -273 296 -76 20 -221 18 -285 -5z"/>
</g>
</svg>
